<svg width="226" height="159" viewBox="0 0 226 159" fill="none" xmlns="http://www.w3.org/2000/svg">
<g filter="url(#filter0_d_1_3)">
<path d="M7.63281 50.72C7.15281 50.3467 6.91281 49.7867 6.91281 49.04C6.91281 48.2933 7.17948 47.5467 7.71281 46.8C8.19281 46 9.09948 45.4133 10.4328 45.04C11.1261 44.8267 12.0328 44.72 13.1528 44.72C15.0195 44.72 17.3661 44.9867 20.1928 45.52C23.0728 46.0533 26.6461 46.6133 30.9128 47.2C31.8728 47.3067 32.8595 47.4133 33.8728 47.52C34.8861 47.6267 35.9528 47.68 37.0728 47.68C37.7661 47.68 38.4595 47.6533 39.1528 47.6C39.8461 47.5467 40.5395 47.4667 41.2328 47.36C43.0995 47.04 45.3128 46.4 47.8728 45.44C50.4328 44.48 52.9928 43.04 55.5528 41.12C58.1128 39.1467 60.3795 36.5867 62.3528 33.44C64.3795 30.24 65.7661 26.2667 66.5128 21.52C66.6195 20.7733 66.6995 20.08 66.7528 19.44C66.8061 18.7467 66.8328 18.08 66.8328 17.44C66.8328 12.8 65.3928 9.28 62.5128 6.88C60.4861 8.74667 58.4861 10.9067 56.5128 13.36C54.5928 15.76 52.6995 18.2667 50.8328 20.88C49.0195 23.44 47.2861 25.8933 45.6328 28.24C44.3528 30 43.0195 31.8667 41.6328 33.84C40.2461 35.8133 38.8061 37.68 37.3128 39.44C35.8195 41.1467 34.2728 42.56 32.6728 43.68C31.0728 44.7467 29.4461 45.3333 27.7928 45.44C29.0728 44.5333 30.3795 43.28 31.7128 41.68C33.0461 40.0267 34.3795 38.2133 35.7128 36.24C37.0461 34.2667 38.3261 32.2933 39.5528 30.32C40.8328 28.3467 42.0328 26.5867 43.1528 25.04C45.6595 21.4133 48.4061 17.8933 51.3928 14.48C54.4328 11.0133 57.4995 8.05334 60.5928 5.6C58.0861 4.21334 54.9128 3.52 51.0728 3.52C47.4995 3.52 44.0861 4.08 40.8328 5.2C37.6328 6.26667 34.6995 7.68 32.0328 9.44C29.3661 11.2 27.0728 13.1733 25.1528 15.36C23.2328 17.4933 21.7395 19.6267 20.6728 21.76C19.6061 23.8933 19.0728 25.8667 19.0728 27.68C19.0728 29.3867 19.6061 30.8267 20.6728 32C21.7928 33.1733 23.5528 33.8667 25.9528 34.08C26.3261 34.08 26.5128 34.16 26.5128 34.32C26.5128 34.5333 26.2728 34.64 25.7928 34.64C22.6461 34.3733 20.3261 33.4667 18.8328 31.92C17.3395 30.3733 16.5928 28.48 16.5928 26.24C16.5928 23.84 17.3661 21.28 18.9128 18.56C20.5128 15.84 22.8061 13.2533 25.7928 10.8C28.7795 8.34667 32.3795 6.34667 36.5928 4.8C40.8061 3.25334 45.5528 2.48 50.8328 2.48C52.9661 2.53334 54.9661 2.72 56.8328 3.04001C58.7528 3.30667 60.5128 3.78667 62.1128 4.48C64.0861 3.09334 66.0061 2 67.8728 1.20001C69.7395 0.400003 71.5261 1.90735e-06 73.2328 1.90735e-06C74.1928 1.90735e-06 75.1528 0.160003 76.1128 0.480005C77.0728 0.746672 77.8728 1.22667 78.5128 1.92C79.2061 2.61333 79.5528 3.62667 79.5528 4.96C79.2328 3.89334 78.4861 3.04 77.3128 2.4C76.1395 1.70667 74.9128 1.36 73.6328 1.36C72.0861 1.36 70.5128 1.73334 68.9128 2.48C67.3128 3.22667 65.7395 4.24 64.1928 5.52C66.3795 6.8 68.0861 8.53334 69.3128 10.72C70.5928 12.9067 71.2328 15.6533 71.2328 18.96C71.2328 22.3733 70.5661 25.6267 69.2328 28.72C67.9528 31.8133 66.2461 34.5867 64.1128 37.04C62.0328 39.4933 59.7928 41.5467 57.3928 43.2C55.0461 44.8533 52.8328 45.9733 50.7528 46.56C48.6728 47.2 46.5661 47.7333 44.4328 48.16C42.2995 48.5867 40.1128 48.8 37.8728 48.8C35.7395 48.8 33.3395 48.64 30.6728 48.32C28.0595 48.0533 25.3928 47.8133 22.6728 47.6C22.0328 47.5467 21.3928 47.52 20.7528 47.52C20.1128 47.4667 19.4195 47.44 18.6728 47.44C16.3795 47.44 14.1661 47.68 12.0328 48.16C9.95281 48.5867 8.48614 49.44 7.63281 50.72ZM75.1884 48.8C72.7351 48.8 71.0018 48.2667 69.9884 47.2C68.9751 46.1333 68.4684 44.6933 68.4684 42.88C68.4684 41.12 68.9484 39.28 69.9084 37.36C70.9218 35.3867 72.1751 33.52 73.6684 31.76C74.5751 30.6933 75.6951 29.5733 77.0284 28.4C78.3618 27.2267 79.8018 26.1333 81.3484 25.12C82.8951 24.0533 84.4151 23.2 85.9084 22.56C87.4551 21.8667 88.8151 21.52 89.9884 21.52C90.6284 21.52 91.2151 21.68 91.7484 22C92.2818 22.2667 92.5484 22.88 92.5484 23.84C92.5484 25.1733 91.9084 26.4533 90.6284 27.68C89.3484 28.8533 87.9084 29.9467 86.3084 30.96C84.4951 32.1333 82.6018 33.12 80.6284 33.92C78.6551 34.72 76.9484 35.3333 75.5084 35.76C74.7084 37.04 74.0684 38.3467 73.5884 39.68C73.1084 41.0133 72.8684 42.32 72.8684 43.6C72.8684 44.9867 73.1884 45.9467 73.8284 46.48C74.5218 46.96 75.3218 47.2 76.2284 47.2C77.8818 47.2 79.3751 46.8267 80.7084 46.08C82.0951 45.28 83.3751 44.2667 84.5484 43.04C85.7218 41.8133 86.8418 40.5867 87.9084 39.36C88.1218 39.36 88.2284 39.52 88.2284 39.84C88.2284 40.32 88.1218 40.6933 87.9084 40.96C86.8418 42.1867 85.6684 43.4133 84.3884 44.64C83.1618 45.8667 81.8018 46.88 80.3084 47.68C78.8151 48.4267 77.1084 48.8 75.1884 48.8ZM76.4684 34.64C77.8551 34.16 79.4818 33.4933 81.3484 32.64C83.2684 31.7867 84.9484 30.8533 86.3884 29.84C86.7084 29.6267 87.2684 29.2 88.0684 28.56C88.8684 27.8667 89.6151 27.12 90.3084 26.32C91.0018 25.4667 91.3484 24.72 91.3484 24.08C91.3484 23.2267 90.9218 22.8 90.0684 22.8C89.1618 22.8 88.1218 23.2 86.9484 24C85.8284 24.8 84.9218 25.4933 84.2284 26.08C82.9484 27.2533 81.6151 28.56 80.2284 30C78.8418 31.44 77.5884 32.9867 76.4684 34.64ZM100.577 48.32C99.4566 48.32 98.6566 48.0267 98.1766 47.44C97.6966 46.8 97.4566 46 97.4566 45.04C97.4566 43.6 97.9632 41.9733 98.9766 40.16C99.9899 38.2933 101.297 36.3467 102.897 34.32C104.55 32.2933 106.257 30.2933 108.017 28.32C109.83 26.3467 111.537 24.5333 113.137 22.88C112.337 22.88 111.457 23.0933 110.497 23.52C109.59 23.9467 108.657 24.4533 107.697 25.04C106.257 26 104.683 27.28 102.977 28.88C101.27 30.48 99.5632 32.1867 97.8566 34C96.1499 35.8133 94.5232 37.6 92.9766 39.36C91.7499 40.8 90.7632 42 90.0166 42.96C89.3232 43.92 88.7099 44.8 88.1766 45.6C87.6966 46.3467 87.1632 47.2 86.5766 48.16C85.7232 48.16 85.2966 47.6533 85.2966 46.64C85.2966 45.5733 85.6432 44.2933 86.3366 42.8C86.9766 41.3067 87.5366 40.1333 88.0166 39.28C89.4032 36.9333 90.9766 34.48 92.7366 31.92C94.5499 29.3067 96.2299 27.0133 97.7766 25.04C98.5766 23.9733 99.4299 23.2 100.337 22.72C101.243 22.1867 102.017 21.8667 102.657 21.76C103.297 21.6 103.617 21.52 103.617 21.52C103.297 22 102.63 23.0133 101.617 24.56C100.603 26.1067 99.4299 27.92 98.0966 30C96.7632 32.08 95.4032 34.1867 94.0166 36.32C96.2032 33.8133 98.5499 31.3867 101.057 29.04C103.563 26.64 105.963 24.6933 108.257 23.2C108.95 22.72 109.67 22.32 110.417 22C111.163 21.68 111.937 21.52 112.737 21.52C114.177 21.52 114.897 22.08 114.897 23.2C114.897 24.0533 114.39 25.0667 113.377 26.24C112.15 27.68 110.817 29.28 109.377 31.04C107.937 32.8 106.55 34.5867 105.217 36.4C103.937 38.2133 102.87 39.8933 102.017 41.44C101.217 42.9867 100.817 44.24 100.817 45.2C100.817 45.7333 100.95 46.1333 101.217 46.4C101.537 46.6133 101.803 46.72 102.017 46.72C102.817 46.72 103.697 46.4 104.657 45.76C105.67 45.12 106.63 44.3733 107.537 43.52C108.497 42.6133 109.323 41.76 110.017 40.96C110.763 40.16 111.243 39.6267 111.457 39.36C111.67 39.36 111.777 39.52 111.777 39.84C111.777 40.32 111.67 40.6933 111.457 40.96C110.71 41.76 109.723 42.7467 108.497 43.92C107.27 45.0933 105.963 46.1333 104.577 47.04C103.19 47.8933 101.857 48.32 100.577 48.32ZM124.092 48.32C122.972 48.32 122.172 48.0267 121.692 47.44C121.212 46.8 120.972 46 120.972 45.04C120.972 43.6 121.479 41.9733 122.492 40.16C123.506 38.2933 124.812 36.3467 126.412 34.32C128.066 32.2933 129.772 30.2933 131.532 28.32C133.346 26.3467 135.052 24.5333 136.652 22.88C135.852 22.88 134.972 23.0933 134.012 23.52C133.106 23.9467 132.172 24.4533 131.212 25.04C129.772 26 128.199 27.28 126.492 28.88C124.786 30.48 123.079 32.1867 121.372 34C119.666 35.8133 118.039 37.6 116.492 39.36C115.266 40.8 114.279 42 113.532 42.96C112.839 43.92 112.226 44.8 111.692 45.6C111.212 46.3467 110.679 47.2 110.092 48.16C109.239 48.16 108.812 47.6533 108.812 46.64C108.812 45.5733 109.159 44.2933 109.852 42.8C110.492 41.3067 111.052 40.1333 111.532 39.28C112.919 36.9333 114.492 34.48 116.252 31.92C118.066 29.3067 119.746 27.0133 121.292 25.04C122.092 23.9733 122.946 23.2 123.852 22.72C124.759 22.1867 125.532 21.8667 126.172 21.76C126.812 21.6 127.132 21.52 127.132 21.52C126.812 22 126.146 23.0133 125.132 24.56C124.119 26.1067 122.946 27.92 121.612 30C120.279 32.08 118.919 34.1867 117.532 36.32C119.719 33.8133 122.066 31.3867 124.572 29.04C127.079 26.64 129.479 24.6933 131.772 23.2C132.466 22.72 133.186 22.32 133.932 22C134.679 21.68 135.452 21.52 136.252 21.52C137.692 21.52 138.412 22.08 138.412 23.2C138.412 24.0533 137.906 25.0667 136.892 26.24C135.666 27.68 134.332 29.28 132.892 31.04C131.452 32.8 130.066 34.5867 128.732 36.4C127.452 38.2133 126.386 39.8933 125.532 41.44C124.732 42.9867 124.332 44.24 124.332 45.2C124.332 45.7333 124.466 46.1333 124.732 46.4C125.052 46.6133 125.319 46.72 125.532 46.72C126.332 46.72 127.212 46.4 128.172 45.76C129.186 45.12 130.146 44.3733 131.052 43.52C132.012 42.6133 132.839 41.76 133.532 40.96C134.279 40.16 134.759 39.6267 134.972 39.36C135.186 39.36 135.292 39.52 135.292 39.84C135.292 40.32 135.186 40.6933 134.972 40.96C134.226 41.76 133.239 42.7467 132.012 43.92C130.786 45.0933 129.479 46.1333 128.092 47.04C126.706 47.8933 125.372 48.32 124.092 48.32ZM124.888 67.92C123.341 67.92 122.274 67.7867 121.688 67.52C121.048 67.3067 120.728 67.12 120.728 66.96C120.728 66.7467 120.914 66.64 121.288 66.64C121.554 66.64 121.821 66.64 122.088 66.64C122.354 66.6933 122.621 66.72 122.888 66.72C124.808 66.72 126.728 66.1333 128.648 64.96C130.568 63.7867 132.434 62.2133 134.248 60.24C136.061 58.32 137.794 56.1867 139.448 53.84C141.101 51.4933 142.594 49.1733 143.928 46.88L150.088 36.24C149.394 37.04 148.488 38.1067 147.368 39.44C146.301 40.7733 145.128 42.1067 143.848 43.44C142.568 44.7733 141.314 45.92 140.088 46.88C138.861 47.7867 137.714 48.24 136.648 48.24C135.368 48.24 134.461 47.9467 133.928 47.36C133.394 46.7733 133.128 46.0267 133.128 45.12C133.128 44.2133 133.341 43.2267 133.768 42.16C134.141 41.0933 134.621 40.0267 135.208 38.96C136.221 37.2533 137.368 35.5467 138.648 33.84C139.981 32.08 141.314 30.4533 142.648 28.96C144.034 27.4133 145.261 26.1067 146.328 25.04C147.341 24.0267 148.381 23.28 149.448 22.8C150.514 22.32 151.421 22 152.168 21.84C152.968 21.6267 153.368 21.52 153.368 21.52C152.194 22.8533 150.594 24.7467 148.568 27.2C146.594 29.6533 144.594 32.2667 142.568 35.04C142.354 35.3067 141.954 35.8667 141.368 36.72C140.834 37.5733 140.248 38.5333 139.608 39.6C138.968 40.6133 138.408 41.6267 137.928 42.64C137.501 43.6 137.288 44.3733 137.288 44.96C137.288 45.5467 137.608 45.8133 138.248 45.76C138.941 45.7067 139.848 45.2 140.968 44.24C142.088 43.28 143.288 42.1067 144.568 40.72C145.848 39.3333 147.048 37.9733 148.168 36.64C149.341 35.2533 150.301 34.1067 151.048 33.2C151.794 32.3467 152.674 31.28 153.688 30C154.701 28.72 155.794 27.44 156.968 26.16C158.141 24.8267 159.368 23.7333 160.648 22.88C161.981 21.9733 163.314 21.52 164.648 21.52C165.128 21.52 165.421 21.5733 165.528 21.68C163.608 22.5867 161.821 24.0533 160.168 26.08C158.514 28.1067 156.941 30.48 155.448 33.2C153.954 35.92 152.434 38.8 150.888 41.84C149.394 44.8267 147.794 47.76 146.088 50.64C144.381 53.5733 142.514 56.2133 140.488 58.56C138.088 61.3333 135.528 63.5733 132.808 65.28C130.034 67.04 127.394 67.92 124.888 67.92ZM164.264 48.8C163.197 48.8 162.157 48.6933 161.144 48.48C160.184 48.2667 159.331 47.8933 158.584 47.36C157.997 46.9333 157.517 46.3467 157.144 45.6C156.717 44.8533 156.504 43.8933 156.504 42.72C156.504 41.3333 156.851 40.2667 157.544 39.52C158.184 38.7733 158.877 38.4 159.624 38.4C160.211 37.6533 161.011 36.6133 162.024 35.28C163.037 33.8933 164.157 32.3733 165.384 30.72C166.664 29.0667 167.971 27.4133 169.304 25.76C170.637 24.0533 171.891 22.5333 173.064 21.2C173.811 20.4533 174.584 19.6533 175.384 18.8C176.237 17.9467 177.171 17.2267 178.184 16.64C179.251 16 180.371 15.68 181.544 15.68C182.451 15.68 183.091 15.8933 183.464 16.32C183.891 16.7467 184.104 17.2533 184.104 17.84C184.104 18.16 184.024 18.4533 183.864 18.72C183.277 18.6133 182.451 18.72 181.384 19.04C180.317 19.3067 179.144 19.8133 177.864 20.56C176.477 21.4133 175.064 22.48 173.624 23.76C173.571 24.4 173.491 25.3867 173.384 26.72C173.331 28 173.251 29.4667 173.144 31.12C173.037 32.72 172.851 34.3467 172.584 36C172.371 37.6 172.077 39.0133 171.704 40.24C171.437 41.0933 171.011 42.0533 170.424 43.12C169.837 44.1333 169.037 45.0933 168.024 46C167.064 46.8533 165.864 47.44 164.424 47.76C166.344 47.76 167.944 47.4667 169.224 46.88C170.504 46.2933 171.571 45.6267 172.424 44.88C173.331 44.08 174.051 43.44 174.584 42.96C175.011 42.5333 175.597 41.92 176.344 41.12C177.091 40.32 177.624 39.7333 177.944 39.36C178.157 39.36 178.264 39.52 178.264 39.84C178.264 40.32 178.157 40.6933 177.944 40.96C175.704 43.36 173.837 45.12 172.344 46.24C171.011 47.2533 169.651 47.92 168.264 48.24C166.877 48.6133 165.544 48.8 164.264 48.8ZM161.464 47.28C162.371 47.28 163.197 46.9333 163.944 46.24C164.744 45.4933 165.464 44.64 166.104 43.68C166.744 42.6667 167.251 41.7333 167.624 40.88C168.211 39.6 168.824 37.9733 169.464 36C170.104 34.0267 170.717 32.0267 171.304 30C171.891 27.92 172.371 26.1333 172.744 24.64C171.251 26.08 169.757 27.6533 168.264 29.36C166.824 31.0667 165.491 32.6933 164.264 34.24C163.037 35.7867 162.024 37.0667 161.224 38.08C160.531 38.9867 159.997 39.9467 159.624 40.96C159.251 41.9733 159.064 42.9333 159.064 43.84C159.064 44.8533 159.277 45.68 159.704 46.32C160.131 46.96 160.717 47.28 161.464 47.28ZM180.669 67.92C179.122 67.92 178.056 67.7867 177.469 67.52C176.829 67.3067 176.509 67.12 176.509 66.96C176.509 66.7467 176.696 66.64 177.069 66.64C177.336 66.64 177.602 66.64 177.869 66.64C178.136 66.6933 178.402 66.72 178.669 66.72C180.589 66.72 182.509 66.1333 184.429 64.96C186.349 63.7867 188.216 62.2133 190.029 60.24C191.842 58.32 193.576 56.1867 195.229 53.84C196.882 51.4933 198.376 49.1733 199.709 46.88L205.869 36.24C205.176 37.04 204.269 38.1067 203.149 39.44C202.082 40.7733 200.909 42.1067 199.629 43.44C198.349 44.7733 197.096 45.92 195.869 46.88C194.642 47.7867 193.496 48.24 192.429 48.24C191.149 48.24 190.242 47.9467 189.709 47.36C189.176 46.7733 188.909 46.0267 188.909 45.12C188.909 44.2133 189.122 43.2267 189.549 42.16C189.922 41.0933 190.402 40.0267 190.989 38.96C192.002 37.2533 193.149 35.5467 194.429 33.84C195.762 32.08 197.096 30.4533 198.429 28.96C199.816 27.4133 201.042 26.1067 202.109 25.04C203.122 24.0267 204.162 23.28 205.229 22.8C206.296 22.32 207.202 22 207.949 21.84C208.749 21.6267 209.149 21.52 209.149 21.52C207.976 22.8533 206.376 24.7467 204.349 27.2C202.376 29.6533 200.376 32.2667 198.349 35.04C198.136 35.3067 197.736 35.8667 197.149 36.72C196.616 37.5733 196.029 38.5333 195.389 39.6C194.749 40.6133 194.189 41.6267 193.709 42.64C193.282 43.6 193.069 44.3733 193.069 44.96C193.069 45.5467 193.389 45.8133 194.029 45.76C194.722 45.7067 195.629 45.2 196.749 44.24C197.869 43.28 199.069 42.1067 200.349 40.72C201.629 39.3333 202.829 37.9733 203.949 36.64C205.122 35.2533 206.082 34.1067 206.829 33.2C207.576 32.3467 208.456 31.28 209.469 30C210.482 28.72 211.576 27.44 212.749 26.16C213.922 24.8267 215.149 23.7333 216.429 22.88C217.762 21.9733 219.096 21.52 220.429 21.52C220.909 21.52 221.202 21.5733 221.309 21.68C219.389 22.5867 217.602 24.0533 215.949 26.08C214.296 28.1067 212.722 30.48 211.229 33.2C209.736 35.92 208.216 38.8 206.669 41.84C205.176 44.8267 203.576 47.76 201.869 50.64C200.162 53.5733 198.296 56.2133 196.269 58.56C193.869 61.3333 191.309 63.5733 188.589 65.28C185.816 67.04 183.176 67.92 180.669 67.92ZM10.4 150.32C9.44 150.32 8.48 150.16 7.52 149.84C6.50667 149.573 5.68 149.04 5.04 148.24C4.34667 147.493 4 146.453 4 145.12C4 144.373 4.29333 143.547 4.88 142.64C5.41333 141.68 6.08 141.2 6.88 141.2C6.45333 141.84 6.24 142.613 6.24 143.52C6.24 144.48 6.64 145.28 7.44 145.92C8.24 146.613 9.52 146.96 11.28 146.96C13.3067 146.96 15.44 146.373 17.68 145.2C19.92 144.08 22.1867 142.587 24.48 140.72C26.7733 138.8 29.0133 136.693 31.2 134.4C33.3867 132.107 35.4133 129.787 37.28 127.44C39.4133 124.773 41.5733 122.16 43.76 119.6C45.9467 117.04 48.0533 114.747 50.08 112.72C52.16 110.64 54 109.04 55.6 107.92C56.1333 107.547 57.0133 106.933 58.24 106.08C59.52 105.227 61.1467 104.453 63.12 103.76C61.1467 103.813 59.0667 103.787 56.88 103.68C54.7467 103.52 52.6667 103.307 50.64 103.04C49.52 102.88 48.3733 102.747 47.2 102.64C46.0267 102.533 44.8267 102.48 43.6 102.48C40.3467 102.48 37.28 102.907 34.4 103.76C31.52 104.613 29.3067 106.107 27.76 108.24C26.8533 109.52 26.4 110.773 26.4 112C26.4 112.853 26.5867 113.547 26.96 114.08C27.1733 114.293 27.4133 114.533 27.68 114.8C27.9467 115.013 28.16 115.12 28.32 115.12C28.1067 115.333 27.84 115.44 27.52 115.44C27.1467 115.44 26.7733 115.36 26.4 115.2C26.08 114.987 25.8133 114.773 25.6 114.56C25.0667 113.973 24.6667 113.307 24.4 112.56C24.1333 111.76 24 110.987 24 110.24C24 108.747 24.3733 107.493 25.12 106.48C26.6133 104.453 28.5333 102.96 30.88 102C33.2267 101.04 36.1867 100.56 39.76 100.56C41.3067 100.56 42.9867 100.667 44.8 100.88C46.6133 101.04 48.5867 101.28 50.72 101.6C52.8533 101.92 55.0667 102.187 57.36 102.4C59.7067 102.56 61.92 102.64 64 102.64C66.3467 102.64 68.3467 102.533 70 102.32C71.7067 102.053 72.7467 101.653 73.12 101.12H73.28C73.7067 101.12 73.8667 101.36 73.76 101.84C73.6 102.48 73.2267 102.907 72.64 103.12C72.1067 103.28 71.52 103.493 70.88 103.76C67.04 107.227 63.5733 110.907 60.48 114.8C57.3867 118.64 54.4533 122.533 51.68 126.48C49.92 128.933 48.2133 131.387 46.56 133.84C44.9067 136.24 43.3067 138.533 41.76 140.72C43.1467 139.92 44.96 138.453 47.2 136.32C49.4933 134.187 51.9467 131.707 54.56 128.88C57.1733 126.053 59.7333 123.2 62.24 120.32C64.4267 117.813 66.8 115.28 69.36 112.72C71.92 110.107 74.56 107.707 77.28 105.52C80 103.333 82.64 101.573 85.2 100.24C87.8133 98.8533 90.1867 98.16 92.32 98.16C93.76 98.16 95.1467 98.48 96.48 99.12C97.8133 99.7067 98.48 100.907 98.48 102.72C98.48 103.307 98.2933 103.973 97.92 104.72C97.5467 105.467 96.9867 105.92 96.24 106.08C96.5067 105.813 96.6933 105.44 96.8 104.96C96.9067 104.427 96.9867 103.973 97.04 103.6C97.04 102.693 96.64 101.947 95.84 101.36C95.0933 100.72 93.8667 100.4 92.16 100.4C90.0267 100.4 87.7067 101.04 85.2 102.32C82.7467 103.547 80.2133 105.2 77.6 107.28C75.04 109.307 72.5067 111.547 70 114C67.5467 116.453 65.28 118.853 63.2 121.2C60.96 123.76 58.6667 126.32 56.32 128.88C54.0267 131.387 51.8133 133.68 49.68 135.76C47.5467 137.787 45.6267 139.387 43.92 140.56C42.2667 141.733 40.96 142.267 40 142.16C39.9467 142.16 39.92 142.133 39.92 142.08C39.76 142.08 39.6267 141.92 39.52 141.6C39.4667 141.44 39.44 141.147 39.44 140.72C39.44 139.333 39.9467 137.6 40.96 135.52C41.9733 133.387 43.3067 131.12 44.96 128.72C46.6133 126.267 48.3467 123.867 50.16 121.52C52.0267 119.12 53.7867 116.96 55.44 115.04C57.1467 113.067 58.56 111.52 59.68 110.4C60.9067 109.173 62.24 107.947 63.68 106.72C65.1733 105.493 66.64 104.453 68.08 103.6H66.88C65.76 103.653 64.48 104 63.04 104.64C61.6533 105.227 60.2933 105.947 58.96 106.8C57.6267 107.653 56.4533 108.507 55.44 109.36C54 110.587 52.32 112.24 50.4 114.32C48.48 116.347 46.48 118.587 44.4 121.04C42.32 123.44 40.2933 125.893 38.32 128.4C36.3467 130.907 34.2667 133.44 32.08 136C29.9467 138.56 27.7067 140.933 25.36 143.12C23.0133 145.253 20.5867 146.987 18.08 148.32C15.6267 149.653 13.0667 150.32 10.4 150.32ZM59.2 144.24C57.92 144.24 57.0133 143.973 56.48 143.44C56 142.853 55.76 142.133 55.76 141.28C55.76 140.373 55.9467 139.387 56.32 138.32C56.7467 137.253 57.2533 136.187 57.84 135.12C59.3867 132.453 61.2267 129.707 63.36 126.88C65.4933 124.053 67.76 121.253 70.16 118.48C72.6133 115.707 75.0133 113.147 77.36 110.8C78.5333 109.68 79.8133 108.587 81.2 107.52C82.5867 106.453 83.9467 105.573 85.28 104.88C86.6133 104.133 87.7867 103.76 88.8 103.76C88.1067 104.293 87.04 105.28 85.6 106.72C84.16 108.107 82.8267 109.467 81.6 110.8C79.9467 112.56 78.08 114.667 76 117.12C73.9733 119.573 71.9467 122.08 69.92 124.64C67.9467 127.2 66.16 129.6 64.56 131.84C62.96 134.08 61.76 135.92 60.96 137.36C60.5867 138 60.2667 138.667 60 139.36C59.7867 140.053 59.68 140.693 59.68 141.28C59.68 142.293 60.1333 142.8 61.04 142.8C61.6267 142.8 62.56 142.48 63.84 141.84C65.1733 141.093 66.4267 140.133 67.6 138.96C68.7733 137.733 70.0267 136.373 71.36 134.88C71.52 134.88 71.6 134.96 71.6 135.12C71.6 135.333 71.4933 135.627 71.28 136C71.12 136.373 70.9867 136.667 70.88 136.88C68.8 139.333 66.8267 141.173 64.96 142.4C63.0933 143.627 61.1733 144.24 59.2 144.24ZM72.3062 144.32C70.3329 144.32 69.3462 143.2 69.3462 140.96C69.3462 139.68 69.7196 138.16 70.4662 136.4C71.2129 134.587 72.3329 132.693 73.8262 130.72C74.8929 129.387 76.1996 127.973 77.7462 126.48C79.2929 124.933 80.9729 123.467 82.7862 122.08C84.6529 120.693 86.5463 119.573 88.4663 118.72C90.3863 117.813 92.2529 117.36 94.0663 117.36C94.8663 117.36 95.4262 117.493 95.7463 117.76C96.0662 117.973 96.2796 118.213 96.3862 118.48C96.4929 118.693 96.4929 118.853 96.3862 118.96C96.3329 119.067 96.2529 119.093 96.1463 119.04C95.9329 118.933 95.5062 118.88 94.8663 118.88C92.9462 118.88 90.6529 119.813 87.9863 121.68C85.3729 123.493 82.7862 125.867 80.2262 128.8C78.4129 130.827 76.9196 132.827 75.7462 134.8C74.5729 136.72 73.7996 138.32 73.4262 139.6C73.3196 140.027 73.2662 140.4 73.2662 140.72C73.2662 141.467 73.5596 141.84 74.1462 141.84C74.5196 141.84 75.0262 141.68 75.6662 141.36C76.3062 140.987 77.1329 140.373 78.1462 139.52C79.7462 138.133 81.3196 136.507 82.8662 134.64C84.4662 132.773 86.0396 130.88 87.5862 128.96C89.1329 126.987 90.6262 125.173 92.0663 123.52C93.5596 121.867 94.9729 120.613 96.3063 119.76C98.0129 118.64 99.1863 118 99.8263 117.84C100.52 117.68 101.08 117.573 101.506 117.52C101.24 117.84 100.653 118.587 99.7463 119.76C98.8396 120.933 97.8796 122.187 96.8663 123.52C95.8529 124.8 95.0263 125.867 94.3862 126.72C93.4263 128.107 92.3863 129.6 91.2663 131.2C90.1996 132.8 89.2129 134.32 88.3062 135.76C87.4529 137.147 86.8662 138.293 86.5462 139.2C86.2796 140.107 86.1463 140.773 86.1463 141.2C86.1463 142.053 86.4929 142.48 87.1862 142.48C87.6663 142.48 88.2263 142.293 88.8662 141.92C89.5596 141.493 90.2529 141.013 90.9463 140.48C91.8529 139.733 92.7063 138.96 93.5063 138.16C94.3063 137.307 95.1329 136.373 95.9862 135.36C96.1996 135.36 96.3063 135.52 96.3063 135.84C96.3063 136.32 96.1996 136.693 95.9862 136.96C95.2929 137.76 94.4396 138.64 93.4262 139.6C92.4662 140.56 91.5062 141.413 90.5462 142.16C89.8529 142.747 89.0529 143.253 88.1462 143.68C87.2396 144.107 86.3596 144.32 85.5063 144.32C84.2796 144.32 83.4262 144.027 82.9462 143.44C82.4662 142.853 82.2262 142.107 82.2262 141.2C82.2262 140.133 82.4662 138.987 82.9462 137.76C83.4262 136.48 83.9596 135.28 84.5462 134.16C83.8529 135.013 82.9729 136.053 81.9062 137.28C80.8396 138.453 79.8796 139.44 79.0262 140.24C77.8529 141.307 76.7329 142.267 75.6662 143.12C74.5996 143.92 73.4796 144.32 72.3062 144.32ZM97.47 144.24C96.19 144.24 95.2833 143.947 94.75 143.36C94.2167 142.773 93.95 142.027 93.95 141.12C93.95 140.213 94.1633 139.227 94.59 138.16C94.9633 137.04 95.4433 135.947 96.03 134.88C97.0433 133.173 98.19 131.467 99.47 129.76C100.803 128 102.137 126.373 103.47 124.88C104.857 123.387 106.083 122.107 107.15 121.04C108.163 120.027 109.203 119.28 110.27 118.8C111.337 118.32 112.243 118 112.99 117.84C113.79 117.627 114.19 117.52 114.19 117.52C113.017 118.853 111.417 120.747 109.39 123.2C107.417 125.653 105.417 128.267 103.39 131.04C103.177 131.307 102.777 131.867 102.19 132.72C101.657 133.573 101.07 134.533 100.43 135.6C99.79 136.613 99.23 137.627 98.75 138.64C98.3233 139.6 98.11 140.373 98.11 140.96C98.11 141.547 98.43 141.813 99.07 141.76C99.7633 141.707 100.67 141.2 101.79 140.24C102.91 139.28 104.11 138.107 105.39 136.72C106.67 135.333 107.87 133.973 108.99 132.64C110.163 131.253 111.123 130.107 111.87 129.2C112.457 128.507 113.177 127.653 114.03 126.64C114.883 125.573 115.763 124.48 116.67 123.36C117.577 122.24 118.403 121.253 119.15 120.4C120.003 119.44 120.91 118.773 121.87 118.4C122.83 117.973 123.657 117.733 124.35 117.68C125.097 117.573 125.47 117.52 125.47 117.52C125.043 118.053 124.19 119.093 122.91 120.64C121.683 122.187 120.297 124.027 118.75 126.16C117.203 128.24 115.737 130.427 114.35 132.72C112.963 134.96 111.897 137.093 111.15 139.12C110.777 140.027 110.59 140.773 110.59 141.36C110.59 141.893 110.723 142.267 110.99 142.48C111.257 142.64 111.55 142.72 111.87 142.72C112.617 142.72 113.443 142.4 114.35 141.76C115.31 141.12 116.217 140.373 117.07 139.52C117.977 138.613 118.777 137.76 119.47 136.96C120.163 136.16 120.617 135.627 120.83 135.36C121.043 135.36 121.15 135.52 121.15 135.84C121.15 136.32 121.043 136.693 120.83 136.96C120.03 137.92 119.043 138.96 117.87 140.08C116.75 141.2 115.55 142.187 114.27 143.04C113.043 143.84 111.817 144.24 110.59 144.24C109.257 144.24 108.323 143.92 107.79 143.28C107.257 142.64 106.99 141.84 106.99 140.88C106.99 139.973 107.177 138.987 107.55 137.92C107.923 136.8 108.377 135.76 108.91 134.8C108.27 135.44 107.497 136.293 106.59 137.36C105.737 138.373 104.777 139.413 103.71 140.48C102.643 141.547 101.577 142.453 100.51 143.2C99.4433 143.893 98.43 144.24 97.47 144.24ZM130.466 144.4C129.133 144.4 128.173 144.053 127.586 143.36C127.053 142.667 126.786 141.813 126.786 140.8C126.786 140.16 126.866 139.52 127.026 138.88C127.346 137.28 128.146 135.6 129.426 133.84C130.706 132.08 132.226 130.32 133.986 128.56C135.746 126.8 137.533 125.2 139.346 123.76C141.213 122.32 142.866 121.12 144.306 120.16C143.666 120.267 142.84 120.32 141.826 120.32C140.653 120.32 139.426 120.267 138.146 120.16C136.866 120 135.986 119.76 135.506 119.44C135.293 119.813 134.76 120.533 133.906 121.6C133.106 122.613 132.093 123.84 130.866 125.28C129.693 126.72 128.466 128.187 127.186 129.68C125.906 131.173 124.706 132.587 123.586 133.92C122.466 135.2 121.56 136.213 120.866 136.96C120.173 137.76 119.24 138.72 118.066 139.84C116.84 140.907 115.64 141.867 114.466 142.72C113.24 143.573 112.226 144 111.426 144C111.053 144 110.84 143.92 110.786 143.76C110.68 143.6 110.626 143.493 110.626 143.44C111.48 143.44 112.76 142.853 114.466 141.68C116.12 140.453 118.253 138.347 120.866 135.36C124.013 131.733 126.973 127.84 129.746 123.68C132.573 119.467 135.106 115.093 137.346 110.56H137.426C138.12 110.56 138.466 111.227 138.466 112.56C138.466 113.787 138.04 115.227 137.186 116.88C136.973 117.253 136.653 117.76 136.226 118.4C137.293 118.613 138.36 118.773 139.426 118.88C140.493 118.933 141.48 118.96 142.386 118.96C143.133 118.96 143.826 118.933 144.466 118.88C145.106 118.827 145.613 118.747 145.986 118.64C146.466 118.64 146.706 118.747 146.706 118.96C146.76 119.12 146.733 119.253 146.626 119.36C146.413 119.573 145.96 120.053 145.266 120.8C144.626 121.547 143.88 122.373 143.026 123.28C142.226 124.133 141.48 124.96 140.786 125.76C140.093 126.507 139.586 127.067 139.266 127.44C137.613 129.413 135.96 131.573 134.306 133.92C132.706 136.267 131.586 138.373 130.946 140.24C130.733 140.72 130.626 141.173 130.626 141.6C130.626 142.347 130.973 142.72 131.666 142.72C132.413 142.72 133.346 142.293 134.466 141.44C135.586 140.533 136.706 139.493 137.826 138.32C139 137.147 139.933 136.16 140.626 135.36C140.84 135.36 140.946 135.52 140.946 135.84C140.946 136.32 140.84 136.693 140.626 136.96C138.173 139.84 136.173 141.813 134.626 142.88C133.133 143.893 131.746 144.4 130.466 144.4ZM160.552 114.16C159.485 114.16 158.952 113.733 158.952 112.88C158.952 112.613 159.032 112.32 159.192 112C159.459 111.36 159.912 110.8 160.552 110.32C161.245 109.787 161.912 109.52 162.552 109.52C163.565 109.52 164.072 109.947 164.072 110.8C164.072 111.6 163.699 112.347 162.952 113.04C162.205 113.733 161.405 114.107 160.552 114.16ZM143.192 144.4C141.752 144.4 140.739 144.027 140.152 143.28C139.512 142.48 139.192 141.493 139.192 140.32C139.192 138.773 139.672 137.12 140.632 135.36C141.539 133.547 142.685 131.76 144.072 130C145.459 128.187 146.872 126.507 148.312 124.96C149.752 123.36 151.005 122.053 152.072 121.04C153.085 120.027 154.125 119.28 155.192 118.8C156.259 118.32 157.165 118 157.912 117.84C158.712 117.627 159.112 117.52 159.112 117.52C157.939 118.853 156.339 120.747 154.312 123.2C152.285 125.653 150.285 128.267 148.312 131.04C148.152 131.253 147.779 131.787 147.192 132.64C146.605 133.493 145.939 134.48 145.192 135.6C144.499 136.72 143.885 137.813 143.352 138.88C142.872 139.947 142.632 140.8 142.632 141.44C142.632 142.453 143.165 142.96 144.232 142.96C145.032 142.96 145.885 142.667 146.792 142.08C147.752 141.493 148.712 140.773 149.672 139.92C150.632 139.067 151.485 138.24 152.232 137.44C153.032 136.587 153.645 135.893 154.072 135.36C154.285 135.36 154.392 135.52 154.392 135.84C154.392 136.32 154.285 136.693 154.072 136.96C152.045 139.307 150.205 141.147 148.552 142.48C146.952 143.76 145.165 144.4 143.192 144.4ZM160.309 144.8C159.296 144.8 158.256 144.64 157.189 144.32C156.123 144.053 155.243 143.493 154.549 142.64C153.856 141.787 153.509 140.533 153.509 138.88C153.509 137.067 153.989 135.173 154.949 133.2C155.909 131.227 157.189 129.307 158.789 127.44C160.443 125.573 162.229 123.893 164.149 122.4C166.069 120.907 167.989 119.733 169.909 118.88C171.883 117.973 173.696 117.52 175.349 117.52C176.363 117.52 177.056 117.787 177.429 118.32C177.856 118.8 178.069 119.387 178.069 120.08C178.069 120.773 177.909 121.44 177.589 122.08C177.109 123.2 176.256 124.347 175.029 125.52C173.856 126.64 172.496 127.2 170.949 127.2C170.363 127.2 170.016 126.987 169.909 126.56C169.856 126.133 169.883 125.813 169.989 125.6C170.736 125.387 171.749 124.933 173.029 124.24C174.309 123.493 175.323 122.373 176.069 120.88C176.229 120.56 176.309 120.267 176.309 120C176.309 119.2 175.829 118.8 174.869 118.8C173.643 118.8 172.043 119.573 170.069 121.12C168.149 122.613 166.016 124.773 163.669 127.6C162.016 129.52 160.629 131.467 159.509 133.44C158.443 135.36 157.909 137.333 157.909 139.36C157.909 140.587 158.149 141.573 158.629 142.32C159.109 143.013 159.989 143.36 161.269 143.36C162.923 143.36 164.416 142.96 165.749 142.16C167.136 141.36 168.416 140.347 169.589 139.12C170.763 137.84 171.883 136.587 172.949 135.36C173.163 135.36 173.269 135.52 173.269 135.84C173.269 136.32 173.163 136.693 172.949 136.96C171.883 138.187 170.736 139.413 169.509 140.64C168.283 141.867 166.923 142.88 165.429 143.68C163.936 144.427 162.229 144.8 160.309 144.8ZM192.896 114.16C191.829 114.16 191.296 113.733 191.296 112.88C191.296 112.613 191.376 112.32 191.536 112C191.802 111.36 192.256 110.8 192.896 110.32C193.589 109.787 194.256 109.52 194.896 109.52C195.909 109.52 196.416 109.947 196.416 110.8C196.416 111.6 196.042 112.347 195.296 113.04C194.549 113.733 193.749 114.107 192.896 114.16ZM175.536 144.4C174.096 144.4 173.082 144.027 172.496 143.28C171.856 142.48 171.536 141.493 171.536 140.32C171.536 138.773 172.016 137.12 172.976 135.36C173.882 133.547 175.029 131.76 176.416 130C177.802 128.187 179.216 126.507 180.656 124.96C182.096 123.36 183.349 122.053 184.416 121.04C185.429 120.027 186.469 119.28 187.536 118.8C188.602 118.32 189.509 118 190.256 117.84C191.056 117.627 191.456 117.52 191.456 117.52C190.282 118.853 188.682 120.747 186.656 123.2C184.629 125.653 182.629 128.267 180.656 131.04C180.496 131.253 180.122 131.787 179.536 132.64C178.949 133.493 178.282 134.48 177.536 135.6C176.842 136.72 176.229 137.813 175.696 138.88C175.216 139.947 174.976 140.8 174.976 141.44C174.976 142.453 175.509 142.96 176.576 142.96C177.376 142.96 178.229 142.667 179.136 142.08C180.096 141.493 181.056 140.773 182.016 139.92C182.976 139.067 183.829 138.24 184.576 137.44C185.376 136.587 185.989 135.893 186.416 135.36C186.629 135.36 186.736 135.52 186.736 135.84C186.736 136.32 186.629 136.693 186.416 136.96C184.389 139.307 182.549 141.147 180.896 142.48C179.296 143.76 177.509 144.4 175.536 144.4ZM189.533 144.64C187.986 144.64 186.893 144.267 186.253 143.52C185.56 142.72 185.213 141.733 185.213 140.56C185.213 139.067 185.64 137.307 186.493 135.28C187.4 133.253 188.6 131.2 190.093 129.12C191.586 127.04 193.266 125.12 195.133 123.36C197 121.547 198.893 120.107 200.813 119.04C202.786 117.92 204.68 117.36 206.493 117.36C207.826 117.36 208.786 117.707 209.373 118.4C209.96 119.093 210.253 120 210.253 121.12C210.253 122.613 209.826 124.4 208.973 126.48C208.12 128.507 206.946 130.587 205.453 132.72C204.013 134.8 202.386 136.747 200.573 138.56C198.813 140.373 196.973 141.84 195.053 142.96C193.133 144.08 191.293 144.64 189.533 144.64ZM190.493 143.12C191.613 143.12 192.946 142.56 194.493 141.44C196.093 140.267 197.72 138.773 199.373 136.96C201.026 135.147 202.546 133.227 203.933 131.2C205.373 129.12 206.52 127.173 207.373 125.36C208.28 123.493 208.733 121.973 208.733 120.8C208.733 119.52 208.12 118.88 206.893 118.88C205.88 118.88 204.6 119.493 203.053 120.72C201.56 121.893 199.986 123.413 198.333 125.28C196.733 127.147 195.213 129.12 193.773 131.2C192.333 133.28 191.16 135.253 190.253 137.12C189.4 138.987 188.973 140.453 188.973 141.52C188.973 142.587 189.48 143.12 190.493 143.12Z" fill="#D4AF37"/>
</g>
<defs>
<filter id="filter0_d_1_3" x="0" y="0" width="225.309" height="158.32" filterUnits="userSpaceOnUse" color-interpolation-filters="sRGB">
<feFlood flood-opacity="0" result="BackgroundImageFix"/>
<feColorMatrix in="SourceAlpha" type="matrix" values="0 0 0 0 0 0 0 0 0 0 0 0 0 0 0 0 0 0 127 0" result="hardAlpha"/>
<feOffset dy="4"/>
<feGaussianBlur stdDeviation="2"/>
<feComposite in2="hardAlpha" operator="out"/>
<feColorMatrix type="matrix" values="0 0 0 0 0 0 0 0 0 0 0 0 0 0 0 0 0 0 0.25 0"/>
<feBlend mode="normal" in2="BackgroundImageFix" result="effect1_dropShadow_1_3"/>
<feBlend mode="normal" in="SourceGraphic" in2="effect1_dropShadow_1_3" result="shape"/>
</filter>
</defs>
</svg>
